<svg width="36" height="37" viewBox="0 0 36 37" fill="none" xmlns="http://www.w3.org/2000/svg">
<path d="M24.9544 11.0972L17.5453 26.9034C17.5273 26.9418 17.4727 26.9418 17.4547 26.9034L10.0456 11.0972C10.0275 11.0587 10.0627 11.0167 10.1037 11.0277L17.4871 12.9966C17.4956 12.9988 17.5044 12.9988 17.5129 12.9966L24.8963 11.0277C24.9373 11.0167 24.9725 11.0587 24.9544 11.0972Z" stroke="#33363F" stroke-linecap="round"/>
<path d="M17.5248 18.0142L17.2767 18.4483L17.5248 18.0142ZM17.4752 18.0142L17.7233 18.4483L17.4752 18.0142ZM21.2481 19.5659L17.7729 17.5801L17.2767 18.4483L20.7519 20.4341L21.2481 19.5659ZM17.2271 17.5801L13.7519 19.5659L14.2481 20.4341L17.7233 18.4483L17.2271 17.5801ZM17.7729 17.5801C17.6038 17.4834 17.3962 17.4834 17.2271 17.5801L17.7233 18.4483C17.5849 18.5274 17.4151 18.5274 17.2767 18.4483L17.7729 17.5801Z" fill="#33363F"/>
<path d="M1 19V18H-1V19H1ZM35 18V19H37V18H35ZM18 1C27.3888 1 35 8.61116 35 18H37C37 7.50659 28.4934 -1 18 -1V1ZM1 18C1 8.61116 8.61116 1 18 1V-1C7.50659 -1 -1 7.50659 -1 18H1ZM18 36C8.61116 36 1 28.3888 1 19H-1C-1 29.4934 7.50659 38 18 38V36ZM18 38C28.4934 38 37 29.4934 37 19H35C35 28.3888 27.3888 36 18 36V38Z" fill="black"/>
</svg>
